{"title":"The Terminator (1984) BDRip 1080p Dual Audio [Hindi DD 2.0-Eng5.","uid":10907762,"size":3430070583,"categoryP":"video","categoryS":"hd___movies","magnet":"?xt=urn:btih:bf66539dd8b1b42c03745a2e6273698c9f2db949&amp;dn=The+Terminator+%281984%29+BDRip+1080p+Dual+Audio+%5BHindi+DD+2.0-Eng5.&amp;tr=udp%3A%2F%2Ftracker.openbittorrent.com%3A80&amp;tr=udp%3A%2F%2Fopen.demonii.com%3A1337&amp;tr=udp%3A%2F%2Ftracker.coppersurfer.tk%3A6969&amp;tr=udp%3A%2F%2Fexodus.desync.com%3A6969","seeders":5,"leechers":3,"uploader":"inovai","files":25,"time":1409247440,"description":"The Terminator (1984) BDRip 1080p Dual Audio [Hindi DD 2.0-Eng5.1] TQMovies.mkv\n\nScreenshots:\n &lt;a href=&quot;\nhttp://img.primetimeshow.in/share.php?id=7EAD_53FF4C64&quot; rel=&quot;nofollow&quot; target=&quot;_NEW&quot;&gt;\nhttp://img.primetimeshow.in/share.php?id=7EAD_53FF4C64&lt;/a&gt;\n &lt;a href=&quot;\nhttp://img.primetimeshow.in/share.php?id=94B3_53FF4C64&quot; rel=&quot;nofollow&quot; target=&quot;_NEW&quot;&gt;\nhttp://img.primetimeshow.in/share.php?id=94B3_53FF4C64&lt;/a&gt;\n &lt;a href=&quot;\nhttp://img.primetimeshow.in/share.php?id=BAF7_53FF4C64&quot; rel=&quot;nofollow&quot; target=&quot;_NEW&quot;&gt;\nhttp://img.primetimeshow.in/share.php?id=BAF7_53FF4C64&lt;/a&gt;\n &lt;a href=&quot;\nhttp://img.primetimeshow.in/share.php?id=D391_53FF4C64&quot; rel=&quot;nofollow&quot; target=&quot;_NEW&quot;&gt;\nhttp://img.primetimeshow.in/share.php?id=D391_53FF4C64&lt;/a&gt;\n &lt;a href=&quot;\nhttp://img.primetimeshow.in/share.php?id=63FE_53FF4C64&quot; rel=&quot;nofollow&quot; target=&quot;_NEW&quot;&gt;\nhttp://img.primetimeshow.in/share.php?id=63FE_53FF4C64&lt;/a&gt;\n\n:GENERAL INFO:\n\nFormat : Matroska\nFormat version : Version 4 / Version 2\nFile size : 3.13 GiB\nDuration : 1h 47mn\nOverall bit rate : 4 172 Kbps\nMovie name : The Terminator (1984) BDRip 1080p Dual Audio [Hindi DD 2.0-Eng5.1] TQMovies\n\n============================================================================\n\n:VIDEO INFO:\nID : 1\nFormat : AVC\nFormat/Info : Advanced Video Codec\nFormat profile : &lt;a class=&quot;__cf_email__&quot; href=&quot;/cdn-cgi/l/email-protection&quot; data-cfemail=&quot;9bd3f2fcf3dbd7afb5aa&quot;&gt;[email&amp;#160;protected]&lt;/a&gt;&lt;script cf-hash='f9e31' type=&quot;text/javascript&quot;&gt;\n/* &lt;![CDATA[ */!function(){try{var t=&quot;currentScript&quot;in document?document.currentScript:function(){for(var t=document.getElementsByTagName(&quot;script&quot;),e=t.length;e--;)if(t[e].getAttribute(&quot;cf-hash&quot;))return t[e]}();if(t&amp;&amp;t.previousSibling){var e,r,n,i,c=t.previousSibling,a=c.getAttribute(&quot;data-cfemail&quot;);if(a){for(e=&quot;&quot;,r=parseInt(a.substr(0,2),16),n=2;a.length-n;n+=2)i=parseInt(a.substr(n,2),16)^r,e+=String.fromCharCode(i);e=document.createTextNode(e),c.parentNode.replaceChild(e,c)}}}catch(u){}}();/* ]]&gt; */&lt;/script&gt;\nFormat settings, CABAC : Yes\nFormat settings, ReFrames : 4 frames\nCodec ID : V_MPEG4/ISO/AVC\nDuration : 1h 47mn\nBit rate : 3 500 Kbps\nWidth : 1 920 pixels\nHeight : 1 040 pixels\nDisplay aspect ratio : 1.85:1\nFrame rate mode : Constant\nFrame rate : 23.976 fps\nStream size : 2.56 GiB (82%)\nWriting library : x264 core 130 r2273 b3065e6\nDuration : 1h 47mn\nLanguage : English\nDefault : Yes\nForced : No\n\n============================================================================\n\n:AUDIO 1:\nID : 2\nFormat : AC-3\nFormat/Info : Audio Coding 3\nMode extension : CM (complete main)\nFormat settings, Endianness : Big\nCodec ID : A_AC3\nDuration : 1h 47mn\nBit rate mode : Constant\nBit rate : 224 Kbps\nChannel(s) : 2 channels\nChannel positions : Front: L R\nSampling rate : 48.0 KHz\nBit depth : 16 bits\nCompression mode : Lossy\nStream size : 172 MiB (5%)\nTitle : TQMovies\nLanguage : Hindi\nDefault : Yes\nForced : No\n============================================================================\n:AUDIO 2:\nID : 3\nFormat : AC-3\nFormat/Info : Audio Coding 3\nMode extension : CM (complete main)\nFormat settings, Endianness : Big\nCodec ID : A_AC3\nDuration : 1h 47mn\nBit rate mode : Constant\nBit rate : 448 Kbps\nChannel(s) : 6 channels\nChannel positions : Front: L C R, Side: L R, LFE\nSampling rate : 48.0 KHz\nBit depth : 16 bits\nCompression mode : Lossy\nStream size : 344 MiB (11%)\nTitle : TQMovies\nLanguage : English\nDefault : No\nForced : No\n\n============================================================================\n:SUBTITLE:\nText\nID : 4\nFormat : UTF-8\nCodec ID : S_TEXT/UTF8\nCodec ID/Info : UTF-8 Plain Text\nTitle : TQMovies\nLanguage : English\nDefault : Yes\nForced : No\n\nMENU:YES\n\n\nThanks to TQMovies n HDDR!!\n\nSeed n Enjoy!!","torrent":{"xt":"urn:btih:bf66539dd8b1b42c03745a2e6273698c9f2db949","amp;dn":"The+Terminator+%281984%29+BDRip+1080p+Dual+Audio+%5BHindi+DD+2.0-Eng5.","amp;tr":["udp%3A%2F%2Ftracker.openbittorrent.com%3A80","udp%3A%2F%2Fopen.demonii.com%3A1337","udp%3A%2F%2Ftracker.coppersurfer.tk%3A6969","udp%3A%2F%2Fexodus.desync.com%3A6969"],"infoHash":"bf66539dd8b1b42c03745a2e6273698c9f2db949","infoHashBuffer":{"type":"Buffer","data":[191,102,83,157,216,177,180,44,3,116,90,46,98,115,105,140,159,45,185,73]},"announce":[],"urlList":[]}}